<svg width="1920" height="113" viewBox="0 0 1920 113" fill="none" xmlns="http://www.w3.org/2000/svg">
<path d="M-11 56.1806V95.1806V96.6806H-4.5H1928V54.6806C1894.17 34.3473 1811.6 -4.81941 1752 1.18059C1677.5 8.68059 1612.5 51.1806 1532.5 48.1806C1452.5 45.1806 1396.5 -3.3194 1290 0.180588C1192.05 3.39966 1091.5 43.6806 994.5 48.1806C901 56.1806 846.5 9.53389 697 7.68059C576 6.18059 570.5 46.1806 466 47.6806C361.5 49.1806 291.5 -8.31943 196 1.68057C105.5 11.157 43.6667 37.0139 -11 56.1806Z" fill="#FFB8E0"/>
<path d="M-5 71.8612V110.861V112.361H1.5H1938.5V70.3612C1904.67 50.0279 1822.1 10.8612 1762.5 16.8612C1688 24.3612 1623 66.8612 1543 63.8612C1463 60.8612 1407 12.3612 1300.5 15.8612C1202.55 19.0803 1102 59.3612 1005 63.8612C911.5 71.8612 857 25.2145 707.5 23.3612C586.5 21.8612 581 61.8612 476.5 63.3612C372 64.8612 302 7.36117 206.5 17.3612C116 26.8376 49.6667 52.6945 -5 71.8612Z" fill="white"/>
</svg>
