<svg width="1920" height="97" viewBox="0 0 1920 97" fill="none" xmlns="http://www.w3.org/2000/svg">
<path d="M1932.5 40.5001L1932.5 1.50008L1932.5 7.62939e-05L1926 7.57257e-05L-11 -9.36122e-05L-11 41.9999C22.8334 62.3332 105.4 101.5 165 95.4999C239.5 87.9999 304.5 45.4999 384.5 48.4999C464.5 51.5 520.5 99.9999 627 96.5C724.952 93.2809 825.5 53 922.5 48.5C1016 40.5 1070.5 87.1467 1220 89C1341 90.5 1346.5 50.5 1451 49C1555.5 47.5 1625.5 105 1721 95.0001C1811.5 85.5236 1877.83 59.6667 1932.5 40.5001Z" fill="white"/>
</svg>
